<svg width="20" height="18" viewBox="0 0 20 18" fill="none" xmlns="http://www.w3.org/2000/svg">
<path d="M15.1289 16.8911H15.9833V14.4072H18.7611V13.6421H15.9833V11.1581H15.1278V13.6421H12.35V14.4072H15.1278L15.1289 16.8911ZM15.5556 18C14.3178 18 13.2678 17.6142 12.4056 16.8425C11.5426 16.0714 11.1111 15.1325 11.1111 14.0256C11.1111 12.9187 11.5426 11.9795 12.4056 11.2078C13.2685 10.4361 14.3185 10.0506 15.5556 10.0512C16.7926 10.0519 17.843 10.4374 18.7067 11.2078C19.5704 11.9781 20.0015 12.9174 20 14.0256C20 15.1318 19.5689 16.0708 18.7067 16.8425C17.843 17.6142 16.7926 18 15.5556 18ZM3.88889 4.69971H13.8889V3.70612H3.88889V4.69971ZM8.35667 15.8975H1.79556C1.30148 15.8975 0.878889 15.7402 0.527778 15.4256C0.176667 15.111 0.000740741 14.7337 0 14.2939V1.60466C0 1.1635 0.175926 0.785935 0.527778 0.471958C0.879629 0.157982 1.30185 0.000662398 1.79444 0H15.9833C16.4767 0 16.8989 0.157319 17.25 0.471958C17.6011 0.786597 17.777 1.16416 17.7778 1.60466V7.51656C17.4118 7.41256 17.0448 7.33109 16.6767 7.27214C16.3078 7.21384 15.9341 7.1847 15.5556 7.1847C15.1807 7.1847 14.8163 7.21119 14.4622 7.26419C14.1089 7.31718 13.7611 7.39203 13.4189 7.48874V7.45198H3.88889V8.44557H11.2078C10.6463 8.79068 10.153 9.19574 9.72778 9.66074C9.30259 10.1257 8.95259 10.6378 8.67778 11.1968H3.88889V12.1904H8.28889C8.20889 12.4706 8.1463 12.7531 8.10111 13.038C8.05667 13.3228 8.03444 13.6136 8.03444 13.9104C8.03444 14.2151 8.05444 14.5492 8.09444 14.9129C8.13444 15.2766 8.22185 15.6048 8.35667 15.8975Z" fill="white"/>
</svg>
