<svg width="20" height="18" viewBox="0 0 20 18" fill="none" xmlns="http://www.w3.org/2000/svg">
<path d="M4.07406 0H0V1.63636H2.76735L5.10198 9.82718L4.03643 13.9091H18.8139V12.2727H6.22568L6.65327 10.6364H16.8641L20 1.63636H4.54098L4.07406 0ZM14.538 6.95455H12.4001V9H10.6897V6.95455H8.55176V5.31818H10.6897V3.27273H12.4001V5.31818H14.538V6.95455ZM5.13106 14.7273C4.67744 14.7273 4.24241 14.8997 3.92165 15.2066C3.6009 15.5134 3.4207 15.9296 3.4207 16.3636C3.4207 16.7976 3.6009 17.2138 3.92165 17.5207C4.24241 17.8276 4.67744 18 5.13106 18C5.58467 18 6.0197 17.8276 6.34046 17.5207C6.66121 17.2138 6.84141 16.7976 6.84141 16.3636C6.84141 15.9296 6.66121 15.5134 6.34046 15.2066C6.0197 14.8997 5.58467 14.7273 5.13106 14.7273ZM17.1035 14.7273C16.6499 14.7273 16.2149 14.8997 15.8941 15.2066C15.5734 15.5134 15.3932 15.9296 15.3932 16.3636C15.3932 16.7976 15.5734 17.2138 15.8941 17.5207C16.2149 17.8276 16.6499 18 17.1035 18C17.5571 18 17.9922 17.8276 18.3129 17.5207C18.6337 17.2138 18.8139 16.7976 18.8139 16.3636C18.8139 15.9296 18.6337 15.5134 18.3129 15.2066C17.9922 14.8997 17.5571 14.7273 17.1035 14.7273Z" fill="white"/>
</svg>
