<svg width="20" height="18" viewBox="0 0 20 18" fill="none" xmlns="http://www.w3.org/2000/svg">
<path d="M9.04762 0C7.65839 0 6.32606 0.496682 5.34373 1.38078C4.36139 2.26488 3.80952 3.46398 3.80952 4.71429C3.80952 5.96459 4.36139 7.16369 5.34373 8.04779C6.32606 8.93189 7.65839 9.42857 9.04762 9.42857C10.4368 9.42857 11.7692 8.93189 12.7515 8.04779C13.7338 7.16369 14.2857 5.96459 14.2857 4.71429C14.2857 3.46398 13.7338 2.26488 12.7515 1.38078C11.7692 0.496682 10.4368 0 9.04762 0ZM20 14.5714H16.1905V18H14.2857V14.5714H10.4762V12.8571H14.2857V9.42857H16.1905V12.8571H20V14.5714ZM10.3581 10.2857C9.50678 11.2641 9.04527 12.4716 9.04762 13.7143C9.04762 15.0077 9.53714 16.1974 10.3581 17.1429H0V15.4286C0 14.0646 0.602039 12.7565 1.67368 11.792C2.74531 10.8275 4.19876 10.2857 5.71429 10.2857H10.3581Z" fill="white"/>
</svg>
