<svg width="21" height="20" viewBox="0 0 21 20" fill="none" xmlns="http://www.w3.org/2000/svg">
<path d="M18.5774 6.01483V5.65728L12.9673 0.833008H12.5515V6.01483H18.5774ZM14.8112 10.7648C14.0695 10.7649 13.3381 10.9136 12.6749 11.1993C12.0118 11.4849 11.4352 11.8996 10.991 12.4104C10.5469 12.9212 10.2473 13.514 10.1162 14.1418C9.98503 14.7695 10.0259 15.4149 10.2356 16.0267C10.4453 16.6385 10.8179 17.1999 11.324 17.6661C11.8301 18.1324 12.4556 18.4908 13.1509 18.7128C13.8462 18.9348 14.5922 19.0144 15.3295 18.9451C16.0668 18.8759 16.7752 18.6597 17.3983 18.3139L19.0806 19.7587L20.4997 18.5367L18.8184 17.0936C19.2839 16.4741 19.5466 15.7581 19.5788 15.0211C19.611 14.284 19.4115 13.5532 19.0014 12.9054C18.5912 12.2576 17.9856 11.7169 17.2482 11.3402C16.5108 10.9635 15.6689 10.7648 14.8112 10.7648ZM12.0494 14.8671C12.0494 14.2372 12.3404 13.6331 12.8583 13.1877C13.3763 12.7423 14.0787 12.4921 14.8112 12.4921C15.5437 12.4921 16.2462 12.7423 16.7642 13.1877C17.2821 13.6331 17.5731 14.2372 17.5731 14.8671C17.5731 15.497 17.2821 16.1011 16.7642 16.5465C16.2462 16.9919 15.5437 17.2421 14.8112 17.2421C14.0787 17.2421 13.3763 16.9919 12.8583 16.5465C12.3404 16.1011 12.0494 15.497 12.0494 14.8671Z" fill="white"/>
<path d="M10.5431 0.833008H0.5V19.833H12.3469C11.5289 19.534 10.794 19.0891 10.1909 18.5277C9.58773 17.9663 9.13008 17.3012 8.84817 16.5763C8.56627 15.8514 8.46654 15.0834 8.55557 14.3229C8.64461 13.5624 8.92038 12.8269 9.36466 12.1649C9.80894 11.5029 10.4116 10.9295 11.1328 10.4828C11.8539 10.036 12.6772 9.726 13.5481 9.57325C14.419 9.42049 15.3176 9.42848 16.1847 9.59667C17.0517 9.76486 17.8673 10.0894 18.5776 10.5489V7.7421H10.5431V0.833008Z" fill="white"/>
</svg>
