<svg width="21" height="19" viewBox="0 0 21 19" fill="none" xmlns="http://www.w3.org/2000/svg">
<path fill-rule="evenodd" clip-rule="evenodd" d="M16.6094 8.16766L18.7114 6.27588C19.3493 5.70182 19.6688 5.41426 19.8396 5.10458C19.9997 4.81383 20.083 4.49372 20.083 4.16923C20.083 3.84473 19.9997 3.52463 19.8396 3.23387C19.6688 2.92419 19.3493 2.63663 18.7114 2.06257C18.0736 1.48851 17.754 1.20095 17.41 1.04716C17.0869 0.903086 16.7312 0.828125 16.3707 0.828125C16.0101 0.828125 15.6544 0.903086 15.3314 1.04716C14.9873 1.20095 14.6678 1.48851 14.0299 2.06257L11.901 3.97857C13.0335 5.72353 14.6577 7.16856 16.6094 8.16766ZM10.1993 5.51011L2.15893 12.7465C1.66036 13.1952 1.41224 13.4185 1.24839 13.6945C1.08454 13.9683 1.01548 14.2791 0.878552 14.9005L0.157607 18.1416C0.0803631 18.4913 0.0405706 18.6662 0.151755 18.7663C0.26294 18.8663 0.45605 18.8305 0.845782 18.761L4.44699 18.1121C5.13751 17.9889 5.48277 17.9267 5.78823 17.7793C6.0937 17.6318 6.34182 17.4085 6.83922 16.9608L14.903 9.70341C13.0094 8.6365 11.4025 7.20466 10.1982 5.51117" fill="white"/>
</svg>
