<svg width="21" height="19" viewBox="0 0 21 19" fill="none" xmlns="http://www.w3.org/2000/svg">
<path d="M1.99523 0.272643C1.90943 0.195183 1.80758 0.133739 1.69548 0.0918177C1.58338 0.0498967 1.46324 0.0283203 1.34191 0.0283203C1.22057 0.0283203 1.10043 0.0498967 0.98833 0.0918177C0.876233 0.133739 0.774379 0.195183 0.688583 0.272643C0.602788 0.350103 0.534731 0.442061 0.488299 0.543267C0.441867 0.644474 0.417969 0.752946 0.417969 0.862491C0.417969 0.972035 0.441867 1.08051 0.488299 1.18171C0.534731 1.28292 0.602788 1.37488 0.688583 1.45234L4.64558 5.02489C3.91147 5.02931 3.2091 5.2957 2.69173 5.76594C2.17436 6.23617 1.88401 6.87208 1.88402 7.53488V10.8815C1.88402 11.8019 2.71805 12.5549 3.73742 12.5549H5.59081V14.2282C5.59081 15.1485 6.42484 15.9015 7.44421 15.9015H14.8578C15.3675 15.9015 15.8215 15.7174 16.1552 15.4162L18.7777 17.784C18.951 17.9404 19.186 18.0283 19.431 18.0283C19.6761 18.0283 19.9111 17.9404 20.0844 17.784C20.2576 17.6276 20.355 17.4154 20.355 17.1942C20.355 16.9729 20.2576 16.7607 20.0844 16.6043L1.99523 0.272643ZM13.9311 14.2282H8.3709C7.86122 14.2282 7.44421 13.8517 7.44421 13.3915V10.0449H10.2058L14.5798 13.9939C14.4037 14.1361 14.1813 14.2282 13.9311 14.2282ZM17.6379 5.02489H9.88142L18.2217 12.5549H18.5646C19.5839 12.5549 20.418 11.8019 20.418 10.8815V7.53488C20.418 6.14602 19.1762 5.02489 17.6379 5.02489ZM17.6379 8.37154C17.1282 8.37154 16.7112 7.99504 16.7112 7.53488C16.7112 7.07471 17.1282 6.69821 17.6379 6.69821C18.1476 6.69821 18.5646 7.07471 18.5646 7.53488C18.5646 7.99504 18.1476 8.37154 17.6379 8.37154ZM15.7845 4.18823C16.2942 4.18823 16.7112 3.81173 16.7112 3.35156V1.67824C16.7112 1.21807 16.2942 0.841574 15.7845 0.841574H6.51751C6.17463 0.841574 5.88736 1.01727 5.72982 1.26827L8.95472 4.18823H15.7845Z" fill="white"/>
</svg>
