<svg width="20" height="18" viewBox="0 0 20 18" fill="none" xmlns="http://www.w3.org/2000/svg">
<path d="M8.75 0C7.42392 0 6.15215 0.446217 5.21447 1.24049C4.27678 2.03476 3.75 3.11202 3.75 4.23529C3.75 5.35856 4.27678 6.43582 5.21447 7.23009C6.15215 8.02436 7.42392 8.47058 8.75 8.47058C10.0761 8.47058 11.3479 8.02436 12.2855 7.23009C13.2232 6.43582 13.75 5.35856 13.75 4.23529C13.75 3.11202 13.2232 2.03476 12.2855 1.24049C11.3479 0.446217 10.0761 0 8.75 0ZM2.51125 9.5294C2.182 9.52815 1.8557 9.58199 1.55109 9.68785C1.24647 9.79371 0.969546 9.9495 0.736206 10.1463C0.502867 10.343 0.317711 10.5769 0.191372 10.8345C0.0650321 11.092 -3.33358e-06 11.3681 1.28158e-10 11.647C1.28159e-10 13.4375 1.04125 14.7875 2.66875 15.6674C3.97875 16.3747 5.6625 16.777 7.5 16.8988V15.8823C7.5 15.4482 7.7025 15.0565 8.05125 14.761L11.2762 12.0293C11.2581 11.8801 11.2494 11.7303 11.25 11.5803C11.2434 10.858 11.4727 10.1482 11.9125 9.5294H2.51125ZM8.93625 17.8433C8.99289 17.8934 9.06103 17.9331 9.13649 17.9601C9.21194 17.987 9.29311 18.0006 9.375 18H11.875C11.9941 17.9986 12.1111 17.9732 12.2162 17.9259C12.2994 17.8832 12.3645 17.8195 12.4025 17.7437C12.4402 17.6638 12.4662 17.5802 12.48 17.4949C12.4933 17.4067 12.5 17.316 12.5 17.2228V16.9412C12.8 16.9355 13.0346 16.9274 13.2037 16.9168C13.344 16.9149 13.4787 16.8706 13.5837 16.7919C13.6753 16.7052 13.7271 16.5936 13.73 16.4774C13.7433 16.3405 13.75 16.1421 13.75 15.8823H14.375C14.5125 15.8823 14.6233 15.8576 14.7075 15.8082C14.7885 15.7613 14.8553 15.6989 14.9025 15.6261C14.9487 15.5482 14.9783 15.4639 14.99 15.3773C15.0025 15.2834 15.0092 15.187 15.01 15.0882C15.0031 15.0082 14.9998 14.9281 15 14.8479V14.6414C15.215 14.7077 15.4329 14.7547 15.6537 14.7822C15.8754 14.8097 16.1004 14.8235 16.3287 14.8235C16.8152 14.8225 17.2963 14.7377 17.7428 14.5742C18.1894 14.4107 18.592 14.1721 18.9263 13.8727C19.2638 13.5741 19.5271 13.2349 19.7163 12.8552C19.9054 12.4733 20 12.0706 20 11.647C20 11.2059 19.9025 10.7922 19.7075 10.4061C19.5196 10.0292 19.2476 9.68655 18.9062 9.39705C18.5644 9.10832 18.1599 8.87823 17.715 8.7194C17.2524 8.55119 16.7534 8.46645 16.25 8.47058C15.7417 8.48117 15.2633 8.56376 14.815 8.71834C14.3697 8.8699 13.9644 9.09483 13.6225 9.38011C13.2775 9.6674 13.0042 9.99846 12.8025 10.3733C12.5991 10.7522 12.4959 11.1641 12.5 11.5803C12.5 11.8394 12.5358 12.1126 12.6075 12.3999L8.935 15.5096C8.8757 15.5577 8.82868 15.6156 8.79686 15.6797C8.76504 15.7438 8.74909 15.8128 8.75 15.8823V17.4706C8.75 17.6139 8.81167 17.7381 8.935 17.8433M17.85 10.2907C17.9387 10.3635 18.0088 10.451 18.0559 10.5477C18.103 10.6444 18.1261 10.7483 18.1238 10.8529C18.1261 10.9575 18.103 11.0614 18.0559 11.1582C18.0088 11.2549 17.9387 11.3424 17.85 11.4152C17.7641 11.4903 17.6608 11.5497 17.5466 11.5896C17.4324 11.6295 17.3098 11.649 17.1863 11.647C17.0628 11.649 16.9401 11.6295 16.8259 11.5896C16.7117 11.5497 16.6084 11.4903 16.5225 11.4152C16.4338 11.3424 16.3637 11.2549 16.3166 11.1582C16.2695 11.0614 16.2464 10.9575 16.2487 10.8529C16.2487 10.6327 16.34 10.4453 16.5225 10.2907C16.6084 10.2155 16.7117 10.1562 16.8259 10.1163C16.9401 10.0764 17.0628 10.0568 17.1863 10.0588C17.4463 10.0588 17.6675 10.1361 17.85 10.2907Z" fill="white"/>
</svg>
