<svg width="20" height="18" viewBox="0 0 20 18" fill="none" xmlns="http://www.w3.org/2000/svg">
<path d="M20 4V16C20 16.55 19.7826 17.021 19.3478 17.413C18.913 17.805 18.3896 18.0007 17.7778 18H2.22222C1.61111 18 1.08815 17.8043 0.653333 17.413C0.218519 17.0217 0.000740741 16.5507 0 16V2C0 1.45 0.217778 0.979333 0.653333 0.588C1.08889 0.196667 1.61185 0.000666667 2.22222 0H15.5556L20 4ZM10 15C10.9259 15 11.713 14.7083 12.3611 14.125C13.0093 13.5417 13.3333 12.8333 13.3333 12C13.3333 11.1667 13.0093 10.4583 12.3611 9.875C11.713 9.29167 10.9259 9 10 9C9.07407 9 8.28704 9.29167 7.63889 9.875C6.99074 10.4583 6.66667 11.1667 6.66667 12C6.66667 12.8333 6.99074 13.5417 7.63889 14.125C8.28704 14.7083 9.07407 15 10 15ZM3.33333 7H13.3333V3H3.33333V7Z" fill="white"/>
</svg>
